<svg width="32" height="32" viewBox="0 0 32 32" fill="none" xmlns="http://www.w3.org/2000/svg">
<path d="M3.99951 6.33398V23.6673C3.99951 23.8226 4.03566 23.9757 4.10508 24.1145C4.17451 24.2534 4.27532 24.3742 4.39951 24.4673C4.52371 24.5605 4.66789 24.6234 4.82063 24.6512C4.97337 24.679 5.13048 24.6708 5.27951 24.6273L27.2795 18.2106C27.4872 18.1501 27.6697 18.0237 27.7995 17.8507C27.9293 17.6776 27.9995 17.467 27.9995 17.2507V12.7507C27.9995 12.5343 27.9293 12.3237 27.7995 12.1507C27.6697 11.9776 27.4872 11.8512 27.2795 11.7907L5.27951 5.37398C5.13048 5.33052 4.97337 5.32234 4.82063 5.35011C4.66789 5.37789 4.52371 5.44084 4.39951 5.53398C4.27532 5.62713 4.17451 5.74792 4.10508 5.88677C4.03566 6.02563 3.99951 6.17874 3.99951 6.33398V6.33398Z" stroke="#1EA59A" stroke-width="2" stroke-linecap="round" stroke-linejoin="round"/>
<path d="M23 19.4582V24.0001C23 24.2653 22.8946 24.5197 22.7071 24.7072C22.5196 24.8948 22.2652 25.0001 22 25.0001H18C17.7348 25.0001 17.4804 24.8948 17.2929 24.7072C17.1054 24.5197 17 24.2653 17 24.0001V8.79199" stroke="#1EA59A" stroke-width="2" stroke-linecap="round" stroke-linejoin="round"/>
</svg>
