<svg width="128" height="40" viewBox="0 0 128 40" fill="none" xmlns="http://www.w3.org/2000/svg">
<g clip-path="url(#clip0_136_1501)">
<path d="M67.4584 10.05C67.4584 11.4915 66.2987 12.6527 64.8592 12.6527C63.4196 12.6527 62.26 11.4915 62.26 10.05C62.26 8.60861 63.3796 7.44745 64.8592 7.44745C66.3387 7.48749 67.4584 8.64865 67.4584 10.05ZM56.7417 15.2953C56.7417 15.5355 56.7417 15.9359 56.7417 15.9359C56.7417 15.9359 55.5021 14.3343 52.8629 14.3343C48.5043 14.3343 45.1053 17.6577 45.1053 22.2623C45.1053 26.8268 48.4643 30.1902 52.8629 30.1902C55.5421 30.1902 56.7417 28.5485 56.7417 28.5485V29.2292C56.7417 29.5495 56.9816 29.7898 57.3015 29.7898H60.5405V14.7347C60.5405 14.7347 57.5814 14.7347 57.3015 14.7347C56.9816 14.7347 56.7417 15.015 56.7417 15.2953ZM56.7417 24.9449C56.1419 25.8258 54.9423 26.5866 53.5027 26.5866C50.9435 26.5866 48.9841 24.985 48.9841 22.2623C48.9841 19.5395 50.9435 17.9379 53.5027 17.9379C54.9023 17.9379 56.1819 18.7387 56.7417 19.5796V24.9449ZM62.9398 14.7347H66.7786V29.7898H62.9398V14.7347ZM120.282 14.3343C117.643 14.3343 116.403 15.9359 116.403 15.9359V7.48749H112.564V29.7898C112.564 29.7898 115.523 29.7898 115.803 29.7898C116.123 29.7898 116.363 29.5095 116.363 29.2292V28.5485C116.363 28.5485 117.603 30.1902 120.242 30.1902C124.601 30.1902 127.999 26.8268 127.999 22.2623C127.999 17.6977 124.6 14.3343 120.282 14.3343ZM119.642 26.5465C118.163 26.5465 117.003 25.7858 116.403 24.9049V19.5395C117.003 18.7387 118.282 17.8979 119.642 17.8979C122.201 17.8979 124.161 19.4995 124.161 22.2222C124.161 24.9449 122.201 26.5465 119.642 26.5465ZM110.565 20.8609V29.8298H106.726V21.3013C106.726 18.8188 105.926 17.8178 103.767 17.8178C102.607 17.8178 101.408 18.4184 100.648 19.2993V29.7898H96.8092V14.7347H99.8482C100.168 14.7347 100.408 15.015 100.408 15.2953V15.9359C101.528 14.7748 103.007 14.3343 104.487 14.3343C106.166 14.3343 107.566 14.8148 108.685 15.7758C110.045 16.8969 110.565 18.3383 110.565 20.8609ZM87.4921 14.3343C84.8529 14.3343 83.6133 15.9359 83.6133 15.9359V7.48749H79.7745V29.7898C79.7745 29.7898 82.7336 29.7898 83.0135 29.7898C83.3334 29.7898 83.5733 29.5095 83.5733 29.2292V28.5485C83.5733 28.5485 84.8129 30.1902 87.4521 30.1902C91.8107 30.1902 95.2097 26.8268 95.2097 22.2623C95.2497 17.6977 91.8507 14.3343 87.4921 14.3343ZM86.8523 26.5465C85.3727 26.5465 84.2131 25.7858 83.6133 24.9049V19.5395C84.2131 18.7387 85.4927 17.8979 86.8523 17.8979C89.4115 17.8979 91.3709 19.4995 91.3709 22.2222C91.3709 24.9449 89.4115 26.5465 86.8523 26.5465ZM76.4555 14.3343C77.6152 14.3343 78.215 14.5345 78.215 14.5345V18.0981C78.215 18.0981 75.016 17.017 73.0166 19.2993V29.8298H69.1778V14.7347C69.1778 14.7347 72.1369 14.7347 72.4168 14.7347C72.7367 14.7347 72.9766 15.015 72.9766 15.2953V15.9359C73.6964 15.0951 75.2559 14.3343 76.4555 14.3343ZM36.588 28.4284C36.3881 27.9479 36.1881 27.4274 35.9882 26.987C35.6683 26.2663 35.3484 25.5856 35.0685 24.9449L35.0285 24.9049C32.2693 18.8989 29.3103 12.8128 26.1912 6.80681L26.0713 6.56657C25.7514 5.96597 25.4315 5.32533 25.1116 4.68468C24.7117 3.96396 24.3118 3.2032 23.672 2.48248C22.3924 0.880881 20.553 0 18.5936 0C16.5942 0 14.7948 0.880881 13.4752 2.4024C12.8754 3.12312 12.4355 3.88388 12.0357 4.6046C11.7158 5.24525 11.3959 5.88589 11.076 6.48649L10.956 6.72673C7.87697 12.7327 4.8779 18.8188 2.11876 24.8248L2.07878 24.9049C1.79886 25.5455 1.47896 26.2262 1.15906 26.9469C0.959126 27.3874 0.759189 27.8679 0.559251 28.3884C0.0394136 29.8699 -0.120536 31.2713 0.0794011 32.7127C0.519264 35.7157 2.51864 38.2382 5.27778 39.3594C6.31745 39.7998 7.39711 40 8.51676 40C8.83667 40 9.23654 39.96 9.55644 39.9199C10.876 39.7598 12.2356 39.3193 13.5552 38.5586C15.1947 37.6376 16.7542 36.3163 18.5136 34.3944C20.2731 36.3163 21.8726 37.6376 23.4721 38.5586C24.7917 39.3193 26.1513 39.7598 27.4708 39.9199C27.7907 39.96 28.1906 40 28.5105 40C29.6302 40 30.7498 39.7998 31.7495 39.3594C34.5486 38.2382 36.508 35.6757 36.9479 32.7127C37.2678 31.3113 37.1078 29.9099 36.588 28.4284ZM18.5536 30.5105C16.3943 27.7878 14.9947 25.2252 14.5149 23.0631C14.315 22.1421 14.275 21.3413 14.3949 20.6206C14.4749 19.98 14.7148 19.4194 15.0347 18.9389C15.7945 17.8579 17.0741 17.1772 18.5536 17.1772C20.0332 17.1772 21.3528 17.8178 22.0725 18.9389C22.3924 19.4194 22.6324 19.98 22.7123 20.6206C22.8323 21.3413 22.7923 22.1822 22.5924 23.0631C22.1125 25.1852 20.713 27.7477 18.5536 30.5105ZM34.5086 32.3924C34.2287 34.4745 32.8292 36.2763 30.8698 37.0771C29.9101 37.4775 28.8704 37.5976 27.8307 37.4775C26.831 37.3574 25.8314 37.037 24.7917 36.4364C23.3521 35.6356 21.9126 34.3944 20.2331 32.5526C22.8723 29.3093 24.4718 26.3463 25.0716 23.7037C25.3515 22.4625 25.3915 21.3413 25.2715 20.3003C25.1116 19.2993 24.7517 18.3784 24.1919 17.5776C22.9523 15.7758 20.8729 14.7347 18.5536 14.7347C16.2344 14.7347 14.155 15.8158 12.9154 17.5776C12.3556 18.3784 11.9957 19.2993 11.8357 20.3003C11.6758 21.3413 11.7158 22.5025 12.0357 23.7037C12.6355 26.3463 14.275 29.3493 16.8742 32.5926C15.2347 34.4344 13.7551 35.6757 12.3156 36.4765C11.2759 37.0771 10.2762 37.3974 9.27653 37.5175C8.19687 37.6376 7.15719 37.4775 6.23748 37.1171C4.27809 36.3163 2.87853 34.5145 2.59861 32.4324C2.47865 31.4314 2.55863 30.4304 2.9585 29.3093C3.07846 28.9089 3.2784 28.5085 3.47834 28.028C3.75825 27.3874 4.07815 26.7067 4.39805 26.026L4.43804 25.9459C7.19718 19.98 10.1563 13.8939 13.2353 7.96797L13.3553 7.72773C13.6752 7.12713 13.9951 6.48649 14.315 5.88589C14.6349 5.24524 14.9947 4.64464 15.4346 4.12412C16.2743 3.16316 17.394 2.64264 18.6336 2.64264C19.8732 2.64264 20.9929 3.16316 21.8326 4.12412C22.2725 4.64464 22.6324 5.24524 22.9523 5.88589C23.2722 6.48649 23.5921 7.12713 23.912 7.72773L24.0319 7.96797C27.071 13.9339 30.03 20.02 32.7892 25.986V26.026C33.1091 26.6667 33.389 27.3874 33.7089 28.028C33.9088 28.5085 34.1088 28.9089 34.2287 29.3093C34.5486 30.3503 34.6686 31.3514 34.5086 32.3924Z" fill="#95B3C9"/>
</g>
<defs>
<clipPath id="clip0_136_1501">
<rect width="128" height="40" fill="white"/>
</clipPath>
</defs>
</svg>
