<svg width="151" height="40" viewBox="0 0 151 40" fill="none" xmlns="http://www.w3.org/2000/svg">
<g clip-path="url(#clip0_32_2355)">
<path d="M12.7349 0H0V40H12.7349V0Z" fill="#A6C1CE"/>
<path d="M16.3735 0V12.9091V16.9091V30.7273V40H29.1085V29.0909H41.8434V16.3636H29.1085V12.7273H47.3012V0H29.8362H16.3735Z" fill="#A6C1CE"/>
<path d="M59.6722 0H50.9397V12.7273H60.0361V40H72.771V12.7273H81.8674V0H73.4987H59.6722Z" fill="#A6C1CE"/>
<path d="M94.2386 0H85.5061V12.7273H94.6025V40H107.337V12.7273H116.434V0H108.065H94.2386Z" fill="#A6C1CE"/>
<path d="M128.805 0H120.072V12.7273H129.169V40H141.904V12.7273H151V0H142.631H128.805Z" fill="#A6C1CE"/>
</g>
<defs>
<clipPath id="clip0_32_2355">
<rect width="151" height="40" fill="white"/>
</clipPath>
</defs>
</svg>
