<svg width="150" height="40" viewBox="0 0 150 40" fill="none" xmlns="http://www.w3.org/2000/svg">
<path d="M55.8998 8.18066H47.6268C47.353 8.18049 47.088 8.27834 46.8798 8.45657C46.6715 8.6348 46.5336 8.8817 46.491 9.15279L43.145 30.4097C43.1296 30.5084 43.1357 30.6092 43.163 30.7052C43.1902 30.8013 43.2379 30.8903 43.3027 30.9661C43.3676 31.0419 43.448 31.1027 43.5386 31.1443C43.6291 31.186 43.7276 31.2075 43.8272 31.2073H47.7768C48.0509 31.2075 48.316 31.1094 48.5243 30.931C48.7325 30.7525 48.8703 30.5053 48.9127 30.234L49.8151 24.5007C49.8575 24.2296 49.9951 23.9825 50.2032 23.8041C50.4112 23.6256 50.676 23.5275 50.9498 23.5273H53.5688C59.0184 23.5273 62.1635 20.8849 62.9849 15.6485C63.3551 13.3576 63.0006 11.5576 61.9301 10.297C60.7543 8.91279 58.6688 8.18066 55.8998 8.18066ZM56.8543 15.9443C56.4018 18.9188 54.1337 18.9188 51.9405 18.9188H50.6922L51.568 13.3637C51.5936 13.2012 51.6763 13.0532 51.8011 12.9463C51.926 12.8394 52.0848 12.7807 52.249 12.7807H52.8212C54.3151 12.7807 55.7244 12.7807 56.4526 13.634C56.8869 14.1431 57.02 14.8995 56.8543 15.9443ZM80.6293 15.8485H76.6676C76.5034 15.8485 76.3445 15.9073 76.2197 16.0142C76.0948 16.121 76.0122 16.269 75.9865 16.4316L75.8111 17.5419L75.5341 17.1395C74.6764 15.8922 72.7639 15.4752 70.8551 15.4752C66.4772 15.4752 62.7381 18.7976 62.0099 23.4582C61.6313 25.7831 62.1696 28.0061 63.4857 29.5564C64.693 30.9819 66.4204 31.5758 68.4756 31.5758C72.003 31.5758 73.9591 29.3031 73.9591 29.3031L73.7825 30.4061C73.7667 30.5047 73.7725 30.6056 73.7994 30.7018C73.8264 30.7979 73.8738 30.8871 73.9384 30.9631C74.003 31.0392 74.0833 31.1003 74.1737 31.1422C74.2642 31.1842 74.3627 31.206 74.4623 31.2061H78.0309C78.3049 31.2062 78.57 31.1082 78.7783 30.9297C78.9866 30.7513 79.1244 30.5041 79.1668 30.2328L81.3079 16.6461C81.3236 16.5477 81.3179 16.4471 81.291 16.3511C81.2642 16.2552 81.2169 16.1662 81.1523 16.0903C81.0878 16.0145 81.0076 15.9536 80.9173 15.9119C80.827 15.8701 80.7287 15.8485 80.6293 15.8485ZM75.1071 23.5746C74.7248 25.8425 72.9285 27.3649 70.6373 27.3649C69.4869 27.3649 68.5676 26.9952 67.9772 26.2946C67.3918 25.5988 67.1692 24.6085 67.3555 23.5055C67.7123 21.257 69.5389 19.6849 71.795 19.6849C72.92 19.6849 73.8345 20.0595 74.4369 20.7661C75.0406 21.4801 75.2801 22.4764 75.1071 23.5746ZM101.728 15.8485H97.7474C97.5597 15.8488 97.3748 15.895 97.2089 15.9831C97.043 16.0712 96.9011 16.1985 96.7954 16.354L91.3047 24.4582L88.9772 16.6704C88.9058 16.4328 88.7599 16.2247 88.5613 16.0767C88.3626 15.9286 88.1216 15.8487 87.874 15.8485H83.9619C83.8521 15.8482 83.7438 15.8742 83.646 15.9244C83.5483 15.9745 83.4639 16.0473 83.3999 16.1367C83.3358 16.2261 83.2941 16.3295 83.278 16.4384C83.2619 16.5472 83.272 16.6583 83.3075 16.7625L87.6926 29.657L83.57 35.4885C83.4967 35.5919 83.4533 35.7135 83.4444 35.84C83.4355 35.9665 83.4615 36.093 83.5196 36.2057C83.5777 36.3183 83.6656 36.4128 83.7737 36.4787C83.8818 36.5447 84.0059 36.5795 84.1325 36.5794H88.1087C88.2943 36.5797 88.4773 36.5348 88.6418 36.4487C88.8064 36.3626 88.9476 36.2377 89.0534 36.0849L102.295 16.9334C102.366 16.8298 102.408 16.7085 102.416 16.5826C102.424 16.4567 102.397 16.3311 102.339 16.2193C102.281 16.1075 102.193 16.0139 102.085 15.9485C101.978 15.8832 101.854 15.8486 101.728 15.8485Z" fill="#95B3C9"/>
<path d="M114.91 8.1809H106.636C106.362 8.18102 106.097 8.27899 105.889 8.4572C105.681 8.6354 105.544 8.88214 105.501 9.15302L102.155 30.41C102.139 30.5085 102.145 30.6091 102.172 30.7051C102.199 30.801 102.247 30.89 102.311 30.9658C102.376 31.0416 102.456 31.1025 102.547 31.1442C102.637 31.186 102.735 31.2076 102.835 31.2076H107.081C107.272 31.2073 107.457 31.1385 107.603 31.0136C107.748 30.8888 107.845 30.716 107.874 30.5264L108.824 24.5009C108.866 24.2298 109.004 23.9828 109.212 23.8043C109.42 23.6259 109.685 23.5277 109.959 23.5276H112.576C118.027 23.5276 121.171 20.8851 121.994 15.6488C122.365 13.3579 122.008 11.5579 120.938 10.2973C119.763 8.91302 117.679 8.1809 114.91 8.1809ZM115.864 15.9445C115.413 18.9191 113.145 18.9191 110.951 18.9191H109.703L110.58 13.3639C110.606 13.2014 110.688 13.0533 110.813 12.9463C110.937 12.8394 111.096 12.7807 111.26 12.7809H111.832C113.325 12.7809 114.736 12.7809 115.464 13.6342C115.898 14.1433 116.03 14.8997 115.864 15.9445ZM139.638 15.8488H135.679C135.515 15.8483 135.356 15.9069 135.231 16.0139C135.106 16.1209 135.024 16.2692 134.999 16.4318L134.824 17.5421L134.545 17.1397C133.688 15.8924 131.776 15.4754 129.867 15.4754C125.49 15.4754 121.752 18.7979 121.024 23.4585C120.646 25.7833 121.182 28.0064 122.498 29.5567C123.708 30.9821 125.433 31.576 127.488 31.576C131.015 31.576 132.971 29.3033 132.971 29.3033L132.795 30.4064C132.779 30.5052 132.785 30.6062 132.812 30.7026C132.839 30.7989 132.887 30.8882 132.952 30.9643C133.016 31.0404 133.097 31.1014 133.188 31.1432C133.279 31.185 133.377 31.2066 133.477 31.2064H137.044C137.318 31.2062 137.583 31.108 137.791 30.9296C137.999 30.7511 138.137 30.5041 138.179 30.233L140.322 16.6464C140.337 16.5476 140.33 16.4468 140.303 16.3508C140.276 16.2547 140.228 16.1658 140.163 16.09C140.098 16.0142 140.017 15.9534 139.927 15.9118C139.836 15.8702 139.738 15.8487 139.638 15.8488ZM134.116 23.5748C133.736 25.8427 131.937 27.3651 129.646 27.3651C128.498 27.3651 127.576 26.9954 126.986 26.2948C126.401 25.5991 126.18 24.6088 126.364 23.5057C126.724 21.2573 128.548 19.6851 130.804 19.6851C131.929 19.6851 132.843 20.0597 133.446 20.7664C134.052 21.4803 134.291 22.4767 134.116 23.5748ZM144.309 8.76393L140.913 30.41C140.897 30.5085 140.903 30.6091 140.93 30.7051C140.957 30.801 141.005 30.89 141.069 30.9658C141.134 31.0416 141.214 31.1025 141.305 31.1442C141.395 31.186 141.493 31.2076 141.593 31.2076H145.007C145.574 31.2076 146.055 30.7954 146.142 30.2342L149.491 8.97848C149.506 8.87995 149.5 8.77921 149.473 8.6832C149.446 8.58719 149.399 8.49817 149.334 8.42227C149.27 8.34637 149.19 8.28539 149.099 8.24351C149.009 8.20164 148.911 8.17986 148.811 8.17969H144.988C144.824 8.18027 144.666 8.23938 144.541 8.34644C144.417 8.45349 144.334 8.6015 144.309 8.76393Z" fill="#95B3C9"/>
<path d="M8.78925 35.3382L9.42191 31.3115L8.01264 31.2788H1.2832L5.95982 1.56606C5.97374 1.47528 6.01976 1.39253 6.08948 1.3329C6.1592 1.27327 6.24799 1.24073 6.33966 1.24122H17.6864C21.4534 1.24122 24.053 2.02667 25.4102 3.57697C26.0465 4.30425 26.4518 5.06425 26.6477 5.90061C26.8534 6.77819 26.857 7.82667 26.6562 9.10546L26.6417 9.19879V10.0182L27.278 10.3794C27.7637 10.626 28.2003 10.9596 28.5663 11.3636C29.1106 11.9855 29.4626 12.7758 29.6114 13.7127C29.7651 14.6764 29.7143 15.823 29.4626 17.1212C29.1723 18.6145 28.703 19.9152 28.0691 20.9794C27.5098 21.9328 26.7579 22.7585 25.8614 23.4036C25.0195 24.0024 24.0191 24.457 22.888 24.7479C21.7921 25.0339 20.5425 25.1782 19.1719 25.1782H18.2889C17.6574 25.1782 17.0441 25.4061 16.5626 25.8146C16.0819 26.2274 15.7629 26.7978 15.6626 27.4242L15.5961 27.7867L14.4784 34.8836L14.4276 35.1442C14.4143 35.2267 14.3913 35.2679 14.3574 35.2958C14.3246 35.3226 14.2837 35.3376 14.2413 35.3382H8.78925Z" fill="#95B3C9"/>
<path d="M27.8811 9.29297C27.8472 9.50994 27.8085 9.73176 27.7649 9.95964C26.2686 17.6578 21.1492 20.3172 14.6109 20.3172H11.2819C10.4823 20.3172 9.80848 20.899 9.68388 21.6893L7.97945 32.5208L7.49679 35.5912C7.47756 35.7129 7.4849 35.8375 7.51831 35.9561C7.55171 36.0748 7.61038 36.1848 7.69028 36.2786C7.77018 36.3723 7.86942 36.4477 7.98115 36.4993C8.09288 36.551 8.21446 36.5778 8.33751 36.5778H14.2419C14.9411 36.5778 15.5351 36.0687 15.6452 35.3778L15.7032 35.0772L16.8149 28.0081L16.8863 27.6202C16.9952 26.9269 17.5903 26.4178 18.2895 26.4178H19.1726C24.8932 26.4178 29.3714 24.0905 30.6803 17.356C31.227 14.5427 30.944 12.1936 29.4972 10.5415C29.0386 10.0304 28.491 9.60731 27.8811 9.29297Z" fill="#95B3C9"/>
<path d="M26.3155 8.66752C25.8377 8.52902 25.3516 8.42093 24.8602 8.34388C23.8892 8.19436 22.9079 8.12262 21.9255 8.12934H13.032C12.6935 8.12908 12.3661 8.25015 12.109 8.47068C11.8519 8.69121 11.6819 8.99664 11.63 9.33176L9.73803 21.339L9.68359 21.6893C9.74253 21.3071 9.93606 20.9586 10.2292 20.7069C10.5223 20.4553 10.8956 20.317 11.2816 20.3172H14.6106C21.1489 20.3172 26.2683 17.6566 27.7646 9.95964C27.8094 9.73176 27.8469 9.50994 27.8808 9.29297C27.4859 9.08549 27.0744 8.91155 26.6505 8.77297C26.5394 8.73603 26.4277 8.70087 26.3155 8.66752Z" fill="#95B3C9"/>
<path d="M11.6297 9.33212C11.6813 8.99691 11.8511 8.69133 12.1084 8.47091C12.3656 8.2505 12.6933 8.12986 13.0317 8.13091H21.9253C22.9789 8.13091 23.9624 8.2 24.86 8.34546C25.4674 8.44111 26.0664 8.58417 26.6515 8.77333C27.093 8.92 27.5031 9.09333 27.8817 9.29333C28.3269 6.44848 27.8781 4.51152 26.343 2.75758C24.6507 0.826667 21.5963 0 17.6878 0H6.34102C5.54263 0 4.86158 0.581818 4.7382 1.37333L0.0119876 31.3915C-0.0100263 31.5309 -0.0016508 31.6734 0.036538 31.8092C0.0747268 31.945 0.141823 32.0709 0.23321 32.1783C0.324597 32.2856 0.438108 32.3719 0.565932 32.4311C0.693757 32.4903 0.832863 32.521 0.973681 32.5212H7.97892L9.73779 21.3394L11.6297 9.33212Z" fill="#95B3C9"/>
</svg>
